<svg width="512" height="512" viewBox="0 0 512 512" fill="none" xmlns="http://www.w3.org/2000/svg">
<path d="M193.327 198.382L175.093 234.821C160.518 225.719 124.079 178.334 193.327 198.382Z" fill="black"/>
<path d="M268.046 129.137L311.773 211.145C297.197 203.857 260.758 183.809 244.34 178.336L268.046 129.137Z" fill="black"/>
<path d="M256 0C153.833 0 71 82.8333 71 185C71 287.167 153.833 370 256 370C358.167 370 441 287.167 441 185C441 82.8333 358.167 0 256 0ZM348.211 276.744C348.211 276.744 278.963 231.202 227.921 211.154L196.955 269.456C195.14 274.929 182.38 284.031 171.462 276.744C85.7956 227.544 102.186 130.96 209.743 163.769L253.47 79.9457C262.573 65.3702 280.806 69.0003 286.251 79.9457L373.732 253.065C381.02 267.641 366.444 287.717 348.239 276.744H348.211Z" fill="black"/>
<path d="M249.411 432.612V474.38C249.411 500.793 229.141 509.392 219.927 511.849C217.47 512.463 213.785 511.235 212.556 507.549C211.942 504.478 213.785 501.407 216.856 500.179C226.07 497.722 237.126 490.965 237.126 474.38V432.612C237.126 429.541 239.583 426.47 243.268 426.47C246.34 426.47 249.411 428.927 249.411 432.612ZM146.832 483.594C149.289 488.508 144.375 495.265 138.233 491.579C138.233 491.579 114.892 476.223 97.693 469.466L87.2509 489.122C86.6366 490.965 82.3369 494.036 78.6515 491.579C49.7821 474.995 55.3103 442.44 91.5506 453.496L106.292 425.241C109.364 420.327 115.506 421.556 117.349 425.241L146.832 483.594ZM86.0224 465.167C62.6812 458.41 74.966 474.38 79.88 477.452L86.0224 465.167ZM125.948 469.466L111.206 441.826L103.221 458.41C108.749 460.253 121.034 467.01 125.948 469.466ZM218.084 459.024C218.084 477.452 203.343 492.193 184.915 492.193H165.26C161.574 492.193 159.117 489.122 159.117 486.051V432.612C159.117 428.927 162.188 426.47 165.26 426.47H184.915C203.343 426.47 218.084 441.211 218.084 459.024ZM205.8 459.024C205.8 447.968 196.586 438.754 185.53 438.754H172.016V479.909H185.53C196.586 479.909 205.8 470.695 205.8 459.024ZM313.906 432.612V463.324C313.906 473.152 307.149 479.909 297.322 479.909C287.494 479.909 280.737 473.152 280.737 463.324V432.612C280.737 424.627 268.452 424.627 268.452 432.612V463.324C268.452 479.909 280.737 492.193 297.322 492.193C313.906 492.193 326.191 479.909 326.191 463.324V432.612C326.191 424.627 313.906 424.627 313.906 432.612ZM445.354 426.47H399.9C391.915 426.47 391.915 438.754 399.9 438.754H416.485V486.051C416.485 494.036 428.769 494.036 428.769 486.051V438.754H445.354C453.953 438.754 453.953 426.47 445.354 426.47ZM350.761 442.44C351.375 436.912 362.431 433.84 371.645 441.826C377.787 446.74 385.772 439.369 380.244 432.612C369.802 420.941 338.476 421.556 338.476 443.668C338.476 467.01 374.716 462.096 371.031 475.609C369.188 481.751 355.06 484.208 348.304 474.995C342.776 467.01 332.948 474.995 337.862 481.751C351.989 502.021 383.93 493.422 383.93 473.766C383.93 451.039 350.146 455.339 350.761 442.44Z" fill="black"/>
</svg>
