<svg width="512" height="511" viewBox="0 0 512 511" fill="none" xmlns="http://www.w3.org/2000/svg">
<path d="M247.563 0.592C252.891 0.148 258.071 0 263.399 0C359.748 3.552 437.152 80.8081 441 177.156V322.64C440.852 348.984 419.392 370.148 393.196 370C369.22 366.3 350.868 346.764 348.648 322.64V177.156C344.652 126.392 300.252 88.3561 249.487 92.3521C248.895 92.3521 248.303 92.5001 247.711 92.5001" fill="#FBBC04"/>
<path d="M440.999 323.676C440.999 349.132 420.279 369.852 394.823 369.852C369.366 369.852 348.646 349.132 348.646 323.676C348.646 298.22 369.366 277.5 394.823 277.5C420.279 277.5 440.999 298.22 440.999 323.676Z" fill="#4285F4"/>
<path d="M250.228 368.369C276.424 368.665 297.884 347.797 298.18 321.601C298.18 321.453 298.18 321.453 298.18 321.305C297.44 295.849 276.128 275.721 250.672 276.461C250.376 276.461 249.932 276.461 249.636 276.461C199.168 272.613 161.132 228.805 164.684 178.189V177.449C168.384 131.865 204.644 95.9006 250.228 92.4966C275.684 93.5326 297.144 73.7006 298.18 48.2446C298.18 47.9486 298.18 47.8006 298.18 47.5046C297.884 21.3086 276.424 0.144567 250.228 0.440567H246.972C148.848 5.02857 71.592 85.5406 71 183.813V184.553C71 299.845 172.084 368.517 247.416 368.517H250.228V368.369Z" fill="#EA4335"/>
<path fill-rule="evenodd" clip-rule="evenodd" d="M73.8623 509.138L105.227 426H117.329L148.694 509.138H136.878L128.858 486.581H93.9129L85.6778 509.138H73.8623ZM97.4217 476.628H125.063L111.457 439.104H111.027L97.4217 476.628ZM178.054 511C170.678 511 164.376 508.064 159.005 502.264C153.635 496.463 150.985 489.231 150.985 480.638C150.985 472.045 153.635 464.812 159.005 459.012C164.376 453.211 170.678 450.275 178.054 450.275C182.422 450.275 186.289 451.206 189.726 453.068C193.163 454.93 195.741 457.222 197.46 460.014H197.889L197.46 452.137V426H208.129V509.138H197.889V501.261H197.46C195.741 504.054 193.163 506.345 189.726 508.207C186.289 510.069 182.422 511 178.054 511ZM179.844 501.19C184.856 501.19 189.153 499.328 192.662 495.604C196.171 491.88 197.961 486.868 197.961 480.638C197.961 474.408 196.171 469.395 192.662 465.671C189.153 461.948 184.856 460.086 179.844 460.086C174.903 460.086 170.606 461.948 167.097 465.743C163.517 469.467 161.727 474.479 161.727 480.638C161.727 486.796 163.517 491.809 167.097 495.532C170.606 499.328 174.903 501.19 179.844 501.19ZM222.523 509.138V426H233.193L262.123 476.628H262.552L291.482 426H302.152V509.138H291.482V459.799L291.912 445.836H291.482L265.488 491.451H259.187L233.193 445.836H232.763L233.193 459.799V509.138H222.523ZM321.487 459.083C327 453.283 334.018 450.347 342.54 450.347C351.061 450.347 358.079 453.211 363.593 459.012C369.107 464.812 371.828 471.973 371.828 480.638C371.828 489.302 369.107 496.535 363.593 502.264C358.079 508.064 351.061 510.928 342.54 510.928C334.018 510.928 327 508.064 321.487 502.264C315.973 496.463 313.251 489.302 313.251 480.638C313.251 471.973 315.973 464.812 321.487 459.083ZM329.364 495.676C333.087 499.399 337.455 501.261 342.468 501.261C347.481 501.261 351.849 499.399 355.501 495.604C359.153 491.88 361.015 486.868 361.015 480.709C361.015 474.551 359.153 469.538 355.501 465.815C351.849 462.091 347.481 460.158 342.468 460.158C337.455 460.158 333.087 462.019 329.435 465.815C325.783 469.538 323.921 474.551 323.921 480.709C323.921 486.868 325.783 491.88 329.364 495.676ZM411.069 511C406.701 511 402.834 510.069 399.397 508.207C395.96 506.345 393.382 504.054 391.663 501.261H391.234V509.138H380.994V426H391.663V452.209L391.234 460.086H391.663C393.382 457.293 395.96 455.002 399.397 453.14C402.834 451.278 406.701 450.347 411.069 450.347C418.445 450.347 424.747 453.283 430.118 459.083C435.488 464.884 438.138 472.116 438.138 480.709C438.138 489.302 435.488 496.535 430.118 502.335C424.747 508.064 418.445 511 411.069 511ZM409.351 501.19C414.292 501.19 418.588 499.328 422.097 495.532C425.678 491.809 427.468 486.796 427.468 480.638C427.468 474.479 425.678 469.467 422.097 465.743C418.517 462.019 414.292 460.086 409.351 460.086C404.338 460.086 400.042 461.948 396.533 465.671C393.024 469.395 391.234 474.408 391.234 480.638C391.234 486.868 393.024 491.88 396.533 495.604C400.042 499.328 404.338 501.19 409.351 501.19Z" fill="#5F6368"/>
</svg>
