<svg width="512" height="512" viewBox="0 0 512 512" fill="none" xmlns="http://www.w3.org/2000/svg">
<path d="M458.549 285.593C445.55 271.879 422.116 266.959 404.347 274.979L296.032 79.8154L295.704 79.0999C319.943 46.9602 296.688 -0.0866913 256.051 0.00275138C215.951 -0.414648 192.278 46.7515 216.04 78.5931C215.534 79.398 107.785 273.787 107.218 274.771C75.7942 261.116 38.2581 286.07 39.0333 320.536C39.0333 347.845 61.1853 369.997 88.4951 369.997C129.221 370.415 152.775 321.907 127.611 290.334C194.336 272.326 314.368 272.058 384.193 290.572C359.417 322.235 382.97 370.415 423.547 369.997C467.523 370.117 489.437 316.063 458.52 285.563L458.549 285.593ZM88.8231 349.932C72.6637 349.992 59.5157 336.963 59.456 320.804C60.9468 281.956 115.865 281.837 117.832 320.565H117.981C118.041 336.725 105.012 349.873 88.8529 349.932H88.8231ZM256.051 20.2466C272.181 20.3361 285.209 33.3649 285.299 49.4944C283.778 88.3125 228.324 88.2827 226.773 49.4944C226.773 33.3351 239.862 20.2466 256.021 20.2466H256.051ZM135.512 267.079L232.051 92.8741V92.7846C245.914 100.894 265.711 100.984 279.634 93.0231L376.292 267.079C302.591 250.919 202.326 251.635 135.512 267.079ZM423.726 349.932C407.567 349.992 394.419 336.963 394.359 320.804C394.3 304.645 407.328 291.496 423.488 291.437C439.587 291.437 452.706 304.466 452.855 320.565C452.914 336.725 439.886 349.873 423.726 349.932Z" fill="#0599C5"/>
<path d="M58.8917 510.893L53.7193 495.006H24.5321C23.7932 497.592 22.6848 500.178 21.9459 502.765L19.3597 510.523H5.32031L31.5518 438.109H46.6996L72.1922 510.893H58.8917ZM38.941 453.996C37.0937 458.799 35.6159 463.602 33.7686 468.405C31.9213 473.208 30.4434 478.011 28.5962 483.183H49.6553L38.941 453.996Z" fill="#0599C5"/>
<path d="M115.05 438.473H88.4492V511.256H100.641V486.502H115.05C129.829 486.502 136.848 480.221 136.848 467.66V457.315C136.848 444.384 129.829 438.473 115.05 438.473ZM100.641 449.926H114.681C123.178 449.926 124.287 452.143 124.287 457.315V467.66C124.287 472.832 122.809 475.049 114.681 475.049H100.641V449.926Z" fill="#0599C5"/>
<path d="M177.857 438.473H151.256V511.256H163.448V486.502H177.857C192.635 486.502 199.655 480.221 199.655 467.66V457.315C199.655 444.384 192.635 438.473 177.857 438.473ZM163.448 449.926H177.487C185.985 449.926 187.093 452.143 187.093 457.315V467.66C187.093 472.832 185.615 475.049 177.487 475.049H163.448V449.926Z" fill="#0599C5"/>
<path d="M236.231 503.867H269.852V511.256H228.842V438.473H236.231V503.867Z" fill="#0599C5"/>
<path d="M333.766 489.833C333.766 502.025 326.377 512 307.534 512C288.692 512 281.303 502.025 281.303 489.833V459.167C281.303 446.975 288.692 437 307.534 437C326.377 437 333.766 446.975 333.766 459.167V489.833ZM288.322 489.833C288.322 500.177 294.603 506.089 307.904 506.089C321.204 506.089 327.485 500.177 327.485 489.833V459.167C327.485 448.823 321.204 442.911 307.904 442.911C294.603 442.911 288.322 448.823 288.322 459.167V489.833Z" fill="#0599C5"/>
<path d="M345.223 438.473H352.612L376.257 503.867L399.902 438.473H407.292L381.06 510.886H371.454L345.223 438.473Z" fill="#0599C5"/>
<path d="M429.086 510.886H421.697V438.473H429.086V510.886Z" fill="#0599C5"/>
<path d="M464.192 446.97V510.886H457.172V438.473H467.886L499.66 500.542V438.473H506.679V510.886H497.812L464.192 446.97Z" fill="#0599C5"/>
</svg>
