<svg width="512" height="512" viewBox="0 0 512 512" fill="none" xmlns="http://www.w3.org/2000/svg">
<path d="M191.092 46.7594C195.02 36.4474 200.422 26.9538 208.442 19.2607C240.524 -12.0027 293.557 -4.14597 315.327 35.1379C331.695 64.9282 349.046 94.0638 365.905 123.527C394.059 172.468 422.539 221.409 450.365 270.514C473.772 311.598 448.401 363.486 401.915 370.524C373.435 374.78 346.754 361.685 332.023 336.151C307.307 293.102 282.427 250.054 257.711 207.169C257.22 206.187 256.565 205.368 255.91 204.55C253.291 202.422 252.146 199.312 250.509 196.529C239.542 177.215 228.248 158.064 217.281 138.913C210.243 126.473 202.877 114.197 195.839 101.757C189.455 90.6264 186.509 78.5139 186.836 65.7466C187.327 59.1993 188.146 52.652 191.092 46.7594Z" fill="#3C8BD9"/>
<path d="M191.092 46.7578C189.619 52.6504 188.31 58.543 187.982 64.7629C187.491 78.5123 190.928 91.2796 197.803 103.228C215.808 134.164 233.813 165.264 251.655 196.364C253.292 199.147 254.601 201.929 256.238 204.548C246.417 221.571 236.596 238.43 226.611 255.453C212.862 279.187 199.113 303.085 185.2 326.819C184.545 326.819 184.381 326.492 184.217 326.001C184.054 324.691 184.545 323.546 184.872 322.236C191.583 297.684 186.018 275.914 169.159 257.254C158.847 245.96 145.752 239.576 130.693 237.448C111.051 234.666 93.7009 239.74 78.151 252.016C75.3684 254.144 73.5679 257.254 70.2942 258.891C69.6395 258.891 69.3121 258.563 69.1484 258.072C77.0052 244.487 84.6983 230.901 92.5551 217.315C124.964 161.008 157.373 104.702 189.946 48.5583C190.274 47.9036 190.765 47.4125 191.092 46.7578Z" fill="#FABC04"/>
<path d="M69.8026 258.569C72.9126 255.786 75.8589 252.84 79.1325 250.221C118.907 218.794 178.652 241.546 187.327 291.305C189.455 303.254 188.309 314.712 184.708 326.17C184.544 327.152 184.381 327.97 184.053 328.952C182.58 331.571 181.271 334.354 179.634 336.973C165.066 361.034 143.624 372.983 115.47 371.183C83.2246 368.891 57.8537 344.666 53.4343 312.584C51.3064 297.034 54.4164 282.466 62.4369 269.044C64.0737 266.098 66.0379 263.479 67.8384 260.533C68.6568 259.878 68.3295 258.569 69.8026 258.569Z" fill="#34A852"/>
<path d="M69.8035 258.565C69.1488 259.22 69.1488 260.365 68.003 260.529C67.8393 259.383 68.494 258.729 69.1488 257.91L69.8035 258.565Z" fill="#FABC04"/>
<path d="M184.054 328.947C183.4 327.801 184.054 326.982 184.709 326.164C184.873 326.328 185.2 326.655 185.364 326.819L184.054 328.947Z" fill="#E1C025"/>
<path d="M76.1657 422C56.7573 422 40.6123 437.63 40.6123 456.866C40.6123 476.103 56.7573 491.561 76.1657 491.561C86.6428 491.561 94.3719 488.126 100.555 481.771C106.91 475.416 108.799 466.656 108.799 459.614C108.799 457.382 108.628 455.321 108.284 453.603H76.1657V463.05H99.0093C98.3222 468.374 96.6047 472.324 93.8566 475.073C90.5932 478.336 85.2688 482.115 76.1657 482.115C62.0818 482.115 51.0894 470.779 51.0894 456.866C51.0894 442.954 62.0818 431.618 76.1657 431.618C83.723 431.618 89.3909 434.538 93.3413 438.489L100.04 431.79C94.3718 426.294 86.8146 422 76.1657 422ZM134.391 446.905C122.196 446.905 112.063 456.351 112.063 469.576C112.063 482.63 122.025 492.248 134.391 492.248C146.757 492.248 156.719 482.63 156.719 469.576C156.719 456.523 146.586 446.905 134.391 446.905ZM134.391 483.317C127.692 483.317 121.853 477.649 121.853 469.576C121.853 461.504 127.692 455.836 134.391 455.836C141.089 455.836 146.929 461.332 146.929 469.576C146.929 477.649 141.089 483.317 134.391 483.317ZM182.826 446.905C170.46 446.905 160.498 456.351 160.498 469.576C160.498 482.63 170.46 492.248 182.826 492.248C195.021 492.248 205.154 482.63 205.154 469.576C205.154 456.523 195.192 446.905 182.826 446.905ZM182.826 483.317C176.128 483.317 170.288 477.649 170.288 469.576C170.288 461.504 176.128 455.836 182.826 455.836C189.525 455.836 195.364 461.332 195.364 469.576C195.364 477.649 189.696 483.317 182.826 483.317ZM231.089 446.905C219.925 446.905 209.792 456.695 209.792 469.405C209.792 481.943 219.925 491.733 231.089 491.733C236.414 491.733 240.536 489.328 242.769 486.58H243.112V489.844C243.112 498.431 238.647 503.069 231.261 503.069C225.25 503.069 221.643 498.775 220.097 495.168L211.509 498.775C213.914 504.786 220.441 512 231.261 512C242.769 512 252.387 505.13 252.387 488.641V448.45H243.112V452.057H242.769C240.536 449.309 236.414 446.905 231.089 446.905ZM231.948 482.973C225.25 482.973 219.582 477.305 219.582 469.405C219.582 461.504 225.25 455.664 231.948 455.664C238.647 455.664 243.799 461.504 243.799 469.405C243.799 477.305 238.647 482.973 231.948 482.973ZM259.601 424.748H269.391V491.046H259.601V424.748ZM295.67 446.905C283.99 446.905 274.2 456.008 274.2 469.576C274.2 482.286 283.818 492.248 296.7 492.248C307.177 492.248 313.189 485.893 315.593 482.286L307.864 477.134C305.288 480.912 301.681 483.317 296.7 483.317C291.547 483.317 287.941 481.084 285.708 476.447L316.108 463.908L315.078 461.332C313.189 456.351 307.349 446.905 295.67 446.905ZM283.99 468.889C283.647 460.13 290.86 455.664 295.841 455.664C299.792 455.664 303.227 457.553 304.257 460.473L283.99 468.889Z" fill="#757575"/>
<path d="M333.284 490.017L355.956 429.73H364.715L387.387 490.017H378.799L372.96 473.7H347.712L341.872 490.017H333.284ZM350.288 466.486H370.383L360.593 439.349H360.25L350.288 466.486Z" fill="#757575"/>
<path d="M395.288 485.036C391.509 480.742 389.62 475.589 389.62 469.406C389.62 463.395 391.509 458.242 395.288 453.776C399.238 449.482 403.704 447.421 409.2 447.421C412.292 447.421 415.04 448.108 417.445 449.311C420.021 450.685 421.91 452.23 423.284 454.463H423.628L423.284 448.795V429.73H431.013V490.017H423.628V484.349H423.284C421.91 486.41 420.021 488.127 417.445 489.502C414.868 490.876 412.12 491.391 409.2 491.391C403.704 491.391 399.067 489.33 395.288 485.036ZM419.677 480.227C422.254 477.479 423.456 473.872 423.456 469.406C423.456 465.112 422.254 461.505 419.677 458.757C417.273 456.009 414.181 454.635 410.403 454.635C406.624 454.635 403.532 456.009 401.128 458.757C398.551 461.505 397.349 465.112 397.349 469.406C397.349 473.7 398.551 477.307 401.128 480.055C403.704 482.803 406.796 484.177 410.403 484.177C414.181 484.349 417.273 482.975 419.677 480.227Z" fill="#757575"/>
<path d="M466.739 487.613C463.648 490.017 459.697 491.391 454.888 491.391C450.766 491.391 447.159 490.361 443.896 488.128C440.804 485.895 438.571 483.147 437.197 479.54L444.067 476.62C445.098 479.025 446.472 481.086 448.533 482.46C450.422 483.834 452.655 484.521 454.888 484.521C457.293 484.521 459.354 484.006 461.071 482.975C462.789 481.945 463.476 480.571 463.476 479.197C463.476 476.62 461.415 474.559 457.464 473.357L450.422 471.639C442.35 469.578 438.4 465.8 438.4 459.96C438.4 456.181 439.945 453.262 443.037 450.857C446.129 448.624 450.079 447.422 454.716 447.422C458.323 447.422 461.587 448.281 464.678 449.998C467.598 451.716 469.659 454.12 470.861 457.04L463.991 459.96C463.132 458.242 461.93 456.868 460.213 455.838C458.495 454.807 456.434 454.292 454.201 454.292C452.14 454.292 450.422 454.807 448.705 455.838C447.159 456.868 446.3 458.071 446.3 459.616C446.3 462.021 448.533 463.739 452.999 464.597L459.182 466.143C467.426 468.204 471.377 472.326 471.377 478.51C471.548 482.116 469.831 485.208 466.739 487.613Z" fill="#757575"/>
</svg>
