<svg width="512" height="512" viewBox="0 0 512 512" fill="none" xmlns="http://www.w3.org/2000/svg">
<path d="M65.2834 213.118C65.2834 231.695 69.361 245.959 74.6906 254.588C81.6784 265.89 92.1008 270.678 102.726 270.678C116.431 270.678 128.968 267.277 153.129 233.861C172.485 207.078 195.293 169.482 210.639 145.914L236.627 105.984C254.68 78.2526 275.576 47.4253 299.534 26.5298C319.093 9.47491 340.191 0 361.425 0C397.074 0 431.032 20.6587 457.02 59.4043C485.462 101.838 499.268 155.287 499.268 210.445C499.268 243.235 492.805 267.328 481.807 286.362C471.182 304.771 450.472 323.162 415.635 323.162V270.678C445.464 270.678 452.909 243.268 452.909 211.9C452.909 167.198 442.486 117.59 419.527 82.1441C403.233 57.0017 382.118 41.6389 358.887 41.6389C333.762 41.6389 313.543 60.5887 290.82 94.3769C278.74 112.328 266.338 134.205 252.413 158.891L237.084 186.047C206.29 240.646 198.49 253.082 183.094 273.605C156.107 309.542 133.063 323.162 102.726 323.162C66.7384 323.162 43.9817 307.579 29.8878 284.095C18.3826 264.959 12.7314 239.851 12.7314 211.24L65.2834 213.118Z" fill="#0081FB"/>
<path d="M54.168 63.1097C78.2613 25.9714 113.031 0 152.91 0C176.005 0 198.965 6.83547 222.94 26.4113C249.165 47.8145 277.116 83.0578 311.987 141.142L324.491 161.987C354.675 212.272 371.848 238.142 381.898 250.341C394.825 266.008 403.877 270.678 415.636 270.678C445.465 270.678 452.91 243.268 452.91 211.9L499.269 210.445C499.269 243.235 492.806 267.328 481.808 286.362C471.183 304.771 450.473 323.162 415.636 323.162C393.979 323.162 374.792 318.459 353.575 298.443C337.265 283.08 318.197 255.789 303.527 231.256L259.892 158.366C237.998 121.786 217.915 94.5123 206.291 82.161C193.788 68.8792 177.714 52.8396 152.064 52.8396C131.304 52.8396 113.674 67.4072 98.92 89.6902L54.168 63.1097Z" fill="url(#paint0_linear_2272_5139)"/>
<path d="M152.063 52.8396C131.303 52.8396 113.673 67.4072 98.9193 89.6902C78.0576 121.177 65.2834 168.078 65.2834 213.118C65.2834 231.695 69.361 245.959 74.6906 254.588L29.8878 284.095C18.3826 264.959 12.7314 239.851 12.7314 211.24C12.7314 159.212 27.0115 104.985 54.1673 63.1097C78.2606 25.9714 113.03 0 152.909 0L152.063 52.8396Z" fill="url(#paint1_linear_2272_5139)"/>
<path d="M109.913 422H127.408L157.153 475.813L186.903 422H204.018V510.422H189.746V442.655L163.658 489.583H150.268L124.184 442.655V510.422H109.913V422ZM248.735 454.969C238.5 454.969 232.336 462.671 230.861 472.21H265.597C264.881 462.384 259.214 454.969 248.735 454.969ZM216.711 477.644C216.711 457.573 229.683 442.966 248.984 442.966C267.968 442.966 279.303 457.388 279.303 478.715V482.635H230.861C232.58 493.011 239.465 500.003 250.566 500.003C259.423 500.003 264.959 497.3 270.208 492.358L277.789 501.643C270.646 508.212 261.56 512 250.06 512C229.166 512 216.711 496.765 216.711 477.644ZM296.608 456.234H283.471V444.549H296.608V425.223H310.378V444.549H330.336V456.234H310.378V485.853C310.378 495.966 313.611 499.56 321.557 499.56C325.185 499.56 327.264 499.248 330.336 498.737V510.296C326.509 511.377 322.857 511.873 318.904 511.873C304.038 511.873 296.608 503.752 296.608 487.494V456.234ZM388.317 467.599C385.551 460.617 379.382 455.475 370.316 455.475C358.533 455.475 350.991 463.835 350.991 477.454C350.991 490.732 357.934 499.496 369.751 499.496C379.042 499.496 385.673 494.092 388.317 487.367V467.599ZM402.087 510.422H388.57V501.2C384.792 506.629 377.917 512 366.781 512C348.873 512 336.905 497.008 336.905 477.454C336.905 457.715 349.16 442.966 367.541 442.966C376.626 442.966 383.755 446.599 388.57 453.011V444.549H402.087V510.422Z" fill="#192830"/>
<defs>
<linearGradient id="paint0_linear_2272_5139" x1="115.941" y1="197.958" x2="450.947" y2="214.877" gradientUnits="userSpaceOnUse">
<stop stop-color="#0064E1"/>
<stop offset="0.4" stop-color="#0064E1"/>
<stop offset="0.83" stop-color="#0073EE"/>
<stop offset="1" stop-color="#0082FB"/>
</linearGradient>
<linearGradient id="paint1_linear_2272_5139" x1="88.8691" y1="235.181" x2="88.8691" y2="111.669" gradientUnits="userSpaceOnUse">
<stop stop-color="#0082FB"/>
<stop offset="1" stop-color="#0064E0"/>
</linearGradient>
</defs>
</svg>
