<svg width="1024" height="512" viewBox="0 0 1024 512" fill="none" xmlns="http://www.w3.org/2000/svg">
<path d="M0 151L39.8419 151.163L88.0138 265.999L138.006 151H178.011V318.499L176.506 320.004H149.509L148.004 318.499V205.005L98.0121 319.514C92.4938 319.689 81.6087 322.162 78.1554 317.356C61.507 281.142 47.9736 243.377 31.2668 207.199C30.6135 205.775 31.8735 204.48 29.0035 205.005V320.004H0V151Z" fill="black"/>
<path d="M682.002 370.007C677.65 368.42 672.575 368.514 667.967 367.545C655.6 364.944 642.965 359.962 632.43 353.009L642.498 329.01C643.35 327.715 643.735 327.925 644.971 328.497C650.665 331.075 655.367 334.435 661.748 336.769C690.215 347.152 730.524 346.254 726.989 306.027C726.452 305.397 717.165 312.362 715.66 313.19C678.21 333.747 633.398 309.76 625.441 269.067C613.728 209.193 678.478 165.244 726.989 205.016V193.011H756.004V324.507C756.004 327.12 751.862 338.087 750.392 340.899C740.919 359.064 719.662 368.257 700.003 370.007H682.002ZM685.77 219.285C636.98 224.313 644.248 296.425 694.392 290.895C740.93 285.762 733.674 214.35 685.77 219.285Z" fill="black"/>
<path d="M1024 151V319.001C1016.37 320.086 1005.1 320.949 997.446 320.051C995.987 319.876 994.879 319.934 993.992 318.499V151H1023.99H1024Z" fill="black"/>
<path d="M435.996 141C435.238 149.388 437.011 159.375 436.043 167.553C435.868 169.012 435.926 170.12 434.491 171.007H407.495C406.06 170.132 406.118 169.012 405.943 167.553C404.986 159.375 406.748 149.388 405.99 141H435.985H435.996Z" fill="black"/>
<path d="M943.011 320.003L942.521 307.006C925.254 324.518 891.537 327.715 871.284 314.228C856.747 304.545 850.774 288.001 855.487 270.98C864.354 238.931 916.341 239.071 941.996 246.001C943.477 226.763 933.094 214.909 913.459 215.971C904.032 216.484 890.86 221.163 889.997 232.001H862.499C860.725 230.788 861.752 226.739 862.125 224.616C868.962 185.556 933.969 179.886 958.049 203.464C964.057 209.356 972.003 224.138 972.003 232.503V318.498L970.497 320.003H942.999H943.011ZM941.867 269.136C927.319 262.93 901.244 260.678 888.76 271.983C881.177 278.855 882.565 290.965 891.047 296.46C909.411 308.348 942.054 291.361 941.867 269.136Z" fill="black"/>
<path d="M607.999 267.002H509.999C516.322 286.789 532.901 298.398 554.041 294.548C562.662 292.984 568.566 286.031 575.297 281.189C576.569 281.201 596.543 290.826 598.351 292.144C599.191 292.751 600.264 293.054 599.938 294.419C599.611 295.784 592.121 303.496 590.464 304.966C557.552 334.156 505.017 325.219 487.809 283.674C468.71 237.556 499.895 186.444 551.532 189.944C589.531 192.522 614.743 230.696 607.988 266.991L607.999 267.002ZM579.008 240.006C570.502 217.01 542.386 208.855 523.089 224.594C520.569 226.647 511.994 236.961 512.029 239.516C512.064 242.071 514.374 240.006 514.502 240.006H579.008Z" fill="black"/>
<path d="M354.003 320.001V244.506C354.003 242.511 351.507 234.227 350.503 232.011C341.205 211.5 308.853 213.927 298.82 233.329C297.688 235.522 295.005 242.476 295.005 244.506V318.508L293.5 320.013H266.503L264.998 318.508V193.499L266.503 191.994H293.5L295.005 193.499V210.999C302.227 200.732 312.552 191.62 325.607 190.104C347.272 187.595 366.744 194.642 376.882 214.615C378.55 217.917 383.007 230.377 383.007 233.492V318.496L381.502 320.001H354.003Z" fill="black"/>
<path d="M476.002 191.996L472.001 218.993H435.997V287.488C435.997 288.445 438.085 291.583 438.937 292.54C446.707 301.29 466.447 291.443 467.987 292.983L463.811 318.802C442.985 324.927 416.479 323.982 408.522 299.96C407.694 297.452 405.99 289.74 405.99 287.488V193.501L407.495 191.996H475.991H476.002Z" fill="black"/>
<path d="M849 190V219.003C834.556 219.376 818.281 226.026 812.809 240.318C812.214 241.87 809.998 249.453 809.998 250.503V320.002H782.499L780.994 318.497V193.5L782.499 191.995H809.998V209.996C819.961 197.828 832.374 188.74 849 190Z" fill="black"/>
<path d="M208.495 191.996H234.5L236.005 193.501V318.498L234.5 320.003H208.495L207.002 318.498V193.501L208.495 191.996Z" fill="black"/>
<path d="M436.348 141H405.664V171.683H436.348V141Z" fill="black"/>
<path d="M340.878 141H207.002V171.683H340.878V141Z" fill="#38BEA5"/>
<path d="M406.376 141H340.82V171.683H406.376V141Z" fill="#FDCF08"/>
</svg>
