<svg width="1024" height="489" viewBox="0 0 1024 489" fill="none" xmlns="http://www.w3.org/2000/svg">
<g clip-path="url(#clip0_2272_5180)">
<path d="M840.28 184.808L719.103 115.48C716.482 114.024 713.277 115.771 713.277 118.975V291.421C713.277 294.625 715.025 297.246 717.646 298.994L838.823 368.322C841.446 369.779 844.651 368.031 844.651 364.827V192.381C844.651 189.177 842.901 186.556 840.28 184.808Z" fill="#FF0000"/>
<path d="M671.077 89.3239L549.9 19.9961C547.278 18.5392 544.074 20.2866 544.074 23.4908V291.77C544.074 294.101 545.822 295.848 548.152 295.848H671.66C673.988 295.848 675.738 294.101 675.738 291.77V96.8966C675.445 93.6923 673.698 90.7808 671.077 89.3239Z" fill="#FF0000"/>
<path d="M384.482 367.511L505.659 298.183C508.28 296.726 510.027 293.813 510.027 290.608V3.97702C510.027 1.0655 506.825 -0.974635 504.202 0.482277L383.025 69.8101C380.404 71.267 378.656 74.1785 378.656 77.3828V364.014C378.656 367.218 381.861 368.966 384.482 367.511Z" fill="#FF0000"/>
<path d="M878.426 213.64V292.29C878.426 294.62 880.173 296.368 882.504 296.368H1019.99C1024.07 296.368 1025.53 290.833 1022.03 289.086L884.542 210.435C881.63 208.688 878.426 210.728 878.426 213.64Z" fill="#FF0000"/>
<path d="M338.702 95.1523L1.96838 288.279C-1.52706 290.319 -0.0706073 295.561 4.00736 295.561H340.74C343.071 295.561 344.82 293.813 344.82 291.483V98.6471C344.527 95.4428 341.323 93.6954 338.702 95.1523Z" fill="#FF0000"/>
<path d="M725.09 405.869C725.364 408.859 725.419 414.592 725.09 417.527C724.912 419.131 723.726 423.129 723.047 424.74C721.812 427.689 720.215 429.348 717.335 430.685C716.573 431.042 712.123 432.612 711.719 432.612H677.783C677.234 435.287 676.158 445.641 680.183 445.641H721.655V461.069L720.626 462.098H680.183C678.126 462.098 671.687 461.042 669.534 460.404C664.884 459.033 661.593 456.043 659.988 451.435C657.52 444.345 657.876 414.173 658.562 405.499C659.056 399.259 661.271 393.081 667.243 390.18C673.648 387.074 698.285 387.431 706.26 388.007C714.42 388.603 721.627 391.188 723.931 399.815C724.301 401.193 724.967 404.546 725.083 405.863L725.09 405.869ZM677.79 419.584H704.183C708.434 419.584 708.311 406.919 705.554 404.498H679.504C679.38 404.498 677.79 406.089 677.79 406.212V419.584Z" fill="#19244F"/>
<path d="M350.443 368.84C371.042 371.281 374.58 394.815 373.435 411.724C371.2 444.844 348.811 444.488 321.616 442.931C320.299 442.856 319.147 442.424 317.879 442.211V469.297L300.708 479.548L298.686 479.926V369.868L299.714 368.84H350.443ZM317.879 425.754H347.015C348.825 425.754 353.083 419.967 353.742 418.081C356.066 411.436 356.087 393.985 349.662 389.507C349.14 389.144 345.218 387.354 344.958 387.354H317.879V425.754Z" fill="#19244F"/>
<path d="M430.993 416.839V406.21C430.397 405.202 427.489 403.81 426.536 403.81H387.115V388.039H434.072C434.566 388.039 438.543 389.253 439.407 389.561C448.397 392.791 449.658 400.238 450.214 408.926C451.05 422.133 451.476 445.468 450.221 458.366C449.974 460.924 449.912 461.767 447.128 462.13C434.442 461.609 421.345 462.727 408.715 462.089C404.779 461.89 398.292 461.479 394.644 460.396C387.711 458.338 384.475 452.812 383.768 445.9C383.069 439.063 382.843 425.945 388.143 420.96C389.768 419.431 396.379 416.839 398.422 416.839H430.986H430.993ZM430.993 430.553H403.229C401.007 430.553 401.137 441.401 401.501 443.253C401.741 444.466 403.613 445.639 404.6 445.639H430.993V430.553Z" fill="#19244F"/>
<path d="M531.767 461.41C531.081 462.487 515.008 462.418 512.574 461.41V406.21C512.574 405.669 509.351 403.81 508.803 403.81H484.467V461.068L483.438 462.096H467.673C467.31 462.096 466.151 461.033 465.273 461.41V388.039H515.66C516.27 388.039 521.742 389.582 522.647 389.966C525.699 391.276 529.1 395.081 530.19 398.188C530.615 399.401 531.767 404.53 531.767 405.518V461.404V461.41Z" fill="#19244F"/>
<path d="M609.918 388.039V442.21C606.921 441.929 591.438 440.38 590.773 438.336L590.725 403.81H571.874C561.472 403.81 562.041 427.81 563.303 434.668L544.206 431.15C543.589 417.991 544.816 398.208 557.803 391.104C559.168 390.357 564.558 388.039 565.71 388.039H609.925H609.918Z" fill="#19244F"/>
<path d="M644.195 379.127V462.099H625.688V369.527C632.229 371.317 637.859 376.501 644.195 379.127Z" fill="#19244F"/>
<path d="M609.918 450.441V472.041C609.918 477.767 599.433 488.841 593.811 488.841H554.732L553.703 487.813V476.841L554.732 475.813H584.896C585.198 475.813 587.913 474.764 588.352 474.469C594.009 470.649 589.792 455.42 591.513 453.966L609.925 450.441H609.918Z" fill="#19244F"/>
<path d="M544.109 434.668L613.346 447.004L544.109 460.725V434.668Z" fill="#FF0000"/>
</g>
<defs>
<clipPath id="clip0_2272_5180">
<rect width="1024" height="488.84" fill="white"/>
</clipPath>
</defs>
</svg>
