<svg width="1024" height="512" viewBox="0 0 1024 512" fill="none" xmlns="http://www.w3.org/2000/svg">
<path d="M308.224 367.303L241.664 255.344L308.224 143.385L340.311 255.344L308.224 367.303ZM160.087 356.377L76.4574 273.433H209.577L276.137 385.392L160.087 356.377ZM160.087 153.968L275.799 124.953L209.239 236.912H76.1186L160.087 153.968ZM330.071 70L178.857 109.255L156.329 147.824L110.935 147.481L0 255.344L110.935 363.207L156.329 362.864L178.857 401.433L330.071 441.031L370.688 293.913L347.817 255.687L370.688 217.456L330.071 70ZM673.449 178.887C653.312 178.887 639.657 187.417 629.417 203.12H628.736V182.983H593.239V331.12H629.417V247.152C629.417 227.015 642.048 213.017 659.456 213.017C675.84 213.017 688.128 222.919 688.128 240.327V331.463H724.311V234.521C724.649 202.096 704.169 178.887 673.449 178.887ZM538.281 268.656C538.281 288.455 527.017 302.105 508.585 302.105C491.863 302.105 481.28 292.551 481.28 275.143V182.983H445.097V281.968C445.097 314.393 463.529 335.559 496.64 335.559C517.463 335.559 529.065 327.705 538.967 314.055H539.991V331.463H574.807V182.983H538.624V268.656H538.281ZM743.767 182.983H779.945V331.12H743.767V182.983ZM743.767 136.903H779.945V166.599H743.767V136.903ZM985.088 182.983L963.584 249.881C958.807 263.536 955.049 282.311 955.049 282.311H954.025C954.025 282.311 949.248 263.536 944.471 249.881L920.233 182.983H881.321L921.257 288.455C929.792 310.983 932.521 320.537 932.521 328.729C932.521 341.017 926.039 348.871 910.679 348.871H896.681V379.929H919.895C949.929 379.929 960.512 367.984 971.776 335.216L1024 183.321H985.088V182.983ZM847.529 287.769V209.264H870.743V183.321H847.529V136.903H811.351V182.983H790.871V208.921H811.351V295.961C811.351 323.952 832.512 331.463 851.625 331.463C867.328 331.463 871.424 330.777 871.424 330.777V302.105H862.208C853.673 302.448 847.529 298.695 847.529 287.769Z" fill="#110B09"/>
</svg>
